:SAMPLES-PER-SECOND 24
:FULLY-SPECIFIED
:DEGREES
185
root  -2.62125 39.6186 22.9821 170.773 77.1461 171.381
RightUpLeg  -1.56527 -22.5747 -24.5041
RightLeg  30.4581 1.59029 0.809266
RightFoot  8.67556 -3.3883 19.5785
RightToes  -1.74623e-010 0 -2.59999e-017
Spine  3.70598 7.54852 14.0314
Spine1  13.3459 12.0175 -12.3871
HEad  -9.91868 30.207 -10.0724
LeftShoulder1  2.05448 -3.35334 -23.719
LeftArm  1.35779 22.131 -28.6859
LeftForeArm  20.6585 -45.4415 -9.93124
LeftHand  -0.702868 0.522719 16.7861
RightShoulder  2.86736 5.1327 27.2185
RightArm  4.68052 17.4783 38.9617
RightForeArm  151.755 65.7587 156.405
RightHand  -0.638399 2.27938 -9.82567
LeftUpLeg  -14.3415 7.14285 14.9502
LeftLeg  22.2866 -13.2929 -5.64819
LeftFoot  7.54667 3.51626 -21.2038
LeftToes  -6.27559e-011 -2.10356e-011 8.24929e-012
186
root  -3.03765 37.6913 23.0193 169.562 78.6681 169.021
RightUpLeg  -7.25777 -23.4372 -25.6141
RightLeg  40.9089 5.28165 4.75048
RightFoot  -3.83698 -1.59391 23.2167
RightToes  -1.74623e-010 0 -2.59999e-017
Spine  5.70848 7.78557 14.9067
Spine1  12.9795 13.188 -15.2719
HEad  -9.0767 14.2389 -2.71979
LeftShoulder1  1.75521 -2.95707 -20.7465
LeftArm  -5.0677 15.7693 -26.1681
LeftForeArm  25.9028 -52.9968 -12.8533
LeftHand  -0.585255 1.23815 16.3118
RightShoulder  2.98 5.31615 27.8271
RightArm  -12.1528 18.2351 27.3876
RightForeArm  108.843 78.0512 114.03
RightHand  -1.45602 5.20897 -15.8447
LeftUpLeg  -19.3071 7.62687 16.1758
LeftLeg  32.1774 -15.3983 -9.90193
LeftFoot  -2.79789 1.55793 -20.1177
LeftToes  -6.27559e-011 -2.10356e-011 8.24929e-012
187
root  -3.60829 35.6945 22.9359 166.221 81.1079 165.017
RightUpLeg  -13.4417 -18.8888 -26.1859
RightLeg  49.5166 6.64908 7.93947
RightFoot  -13.9421 0.401351 22.4387
RightToes  -1.74623e-010 0 -2.59999e-017
Spine  8.23716 7.39653 12.165
Spine1  12.752 12.4045 -14.1219
HEad  -10.4259 -3.25271 5.05147
LeftShoulder1  1.37926 -2.33932 -16.903
LeftArm  -12.9127 4.41529 -24.5149
LeftForeArm  29.9524 -58.8659 -16.0316
LeftHand  -0.389482 2.418 15.0165
RightShoulder  2.99683 5.36786 27.8199
RightArm  -21.4537 13.3825 16.6978
RightForeArm  19.8605 64.1509 24.5558
RightHand  -2.5488 7.60494 -22.775
LeftUpLeg  -24.4388 9.38672 16.4876
LeftLeg  43.8509 -12.5015 -12.1768
LeftFoot  -14.9187 -0.496394 -18.5823
LeftToes  -6.27559e-011 -2.10356e-011 8.24929e-012
188
root  -4.18359 34.1172 22.4204 143.463 86.5984 141.699
RightUpLeg  -19.6516 -10.8264 -26.1722
RightLeg  54.0514 4.74058 6.60924
RightFoot  -21.084 2.05711 25.4387
RightToes  -1.74623e-010 0 -2.59999e-017
Spine  10.7343 6.82866 8.47252
Spine1  12.5308 10.6611 -10.3784
HEad  -13.3472 -20.2314 13.9139
LeftShoulder1  1.11808 -1.77909 -14.248
LeftArm  -22.4705 -14.3294 -19.9334
LeftForeArm  32.3753 -60.7004 -17.1445
LeftHand  -0.26283 3.22548 13.6692
RightShoulder  3.14793 5.57095 28.7537
RightArm  -19.6412 0.59224 9.24053
RightForeArm  8.26867 46.7793 11.3539
RightHand  -2.68687 8.35655 -22.7298
LeftUpLeg  -28.6721 13.127 16.5086
LeftLeg  53.7021 -8.1122 -11.1994
LeftFoot  -21.6349 -1.47342 -17.6695
LeftToes  -6.27559e-011 -2.10356e-011 8.24929e-012
189
root  -4.61942 33.049 21.2543 21.0452 81.9554 18.5203
RightUpLeg  -26.6199 -5.25296 -26.9445
RightLeg  55.2075 7.59311 11.0561
RightFoot  -23.2318 2.69098 26.7629
RightToes  -1.74623e-010 0 -2.59999e-017
Spine  13.1147 4.91524 2.29892
Spine1  11.2728 6.51514 -5.49853
HEad  -13.6239 -31.9431 20.2868
LeftShoulder1  0.932515 -1.31206 -12.2573
LeftArm  -29.1945 -32.809 -16.6961
LeftForeArm  35.8804 -63.2214 -19.0308
LeftHand  -0.156601 3.95519 11.7536
RightShoulder  3.327 5.72161 30.1629
RightArm  -17.8467 -17.0534 4.33007
RightForeArm  8.83968 48.4876 12.0867
RightHand  -2.62617 8.94457 -21.3613
LeftUpLeg  -30.0809 18.494 16.1129
LeftLeg  61.1819 -3.91967 -7.05027
LeftFoot  -25.6494 -1.8491 -15.8782
LeftToes  -6.27559e-011 -2.10356e-011 8.24929e-012
190
root  -4.43558 33.5966 18.8351 1.26396 67.6817 -3.73799
RightUpLeg  -32.6066 0.0503695 -26.6918
RightLeg  43.4582 13.7574 13.253
RightFoot  -12.999 0.250751 23.6383
RightToes  -1.74623e-010 0 -2.59999e-017
Spine  15.8559 0.843975 -5.29014
Spine1  8.63397 -1.86996 7.1284
HEad  -8.75773 -36.7496 19.1938
LeftShoulder1  0.87944 -1.37913 -10.811
LeftArm  -22.2089 -41.4856 -25.2592
LeftForeArm  42.5104 -68.3845 -24.3133
LeftHand  -0.193156 3.40533 10.7345
RightShoulder  3.1313 5.43834 29.0753
RightArm  -22.6117 -28.3605 0.444425
RightForeArm  9.29067 56.4261 16.3967
RightHand  -2.65536 8.78727 -21.8244
LeftUpLeg  -27.7705 27.5192 14.5447
LeftLeg  61.4441 -0.488516 -0.420521
LeftFoot  -28.4405 -1.89988 -13.7195
LeftToes  -6.27559e-011 -2.10356e-011 8.24929e-012
191
root  -3.30211 35.5355 15.9798 1.50941 48.6651 -11.1295
RightUpLeg  -34.0722 -1.55703 -18.7183
RightLeg  14.7191 13.0128 2.31609
RightFoot  -1.07505 -2.08458 22.9023
RightToes  -1.74623e-010 0 -2.59999e-017
Spine  19.3989 -3.62791 -10.8822
Spine1  7.18221 -11.2322 23.0267
HEad  -3.15368 -41.3379 16.2084
LeftShoulder1  1.23566 -2.83638 -12.3908
LeftArm  -4.80518 -41.2097 -39.7526
LeftForeArm  47.9777 -71.6268 -29.2396
LeftHand  -0.296179 2.12984 10.3568
RightShoulder  2.92698 5.13268 27.9424
RightArm  -30.1345 -30.3618 -1.04153
RightForeArm  12.8558 63.9477 22.7035
RightHand  -2.26846 6.64173 -21.9471
LeftUpLeg  -26.6556 43.8896 11.5266
LeftLeg  53.5873 2.04395 3.51482
LeftFoot  -27.9657 -1.61776 -12.1688
LeftToes  -6.27559e-011 -2.10356e-011 8.24929e-012
192
root  -1.53305 37.6138 14.1174 9.06918 25.97 -17.3696
RightUpLeg  -40.1468 -7.65378 -5.3887
RightLeg  2.65338 -6.01437 5.42466
RightFoot  -0.569342 -1.14242 12.0345
RightToes  -1.74623e-010 0 -2.59999e-017
Spine  23.3877 -6.75258 -13.3288
Spine1  7.1354 -16.7791 30.687
HEad  -0.348793 -47.7282 18.3009
LeftShoulder1  1.72852 -4.22403 -15.578
LeftArm  7.09743 -34.56 -47.1884
LeftForeArm  56.475 -75.5151 -39.4319
LeftHand  -0.287054 2.15977 10.1091
RightShoulder  3.21302 5.38217 30.2584
RightArm  -34.4258 -28.2614 -0.298745
RightForeArm  17.2025 67.9595 27.6798
RightHand  -1.90534 5.01936 -21.3032
LeftUpLeg  -35.1066 64.0184 -0.087082
LeftLeg  41.4167 4.9125 5.0547
LeftFoot  -24.186 -1.25462 -12.3928
LeftToes  -6.27559e-011 -2.10356e-011 8.24929e-012
193
root  0.493553 39.5394 12.9233 21.0965 2.58754 -27.1847
RightUpLeg  -59.8632 -13.3305 17.4076
RightLeg  30.9624 4.1516 1.64217
RightFoot  -3.33618 -1.0166 13.7832
RightToes  -1.74623e-010 0 -2.59999e-017
Spine  27.8569 -6.59117 -12.599
Spine1  9.87737 -18.1527 32.9998
HEad  -3.9769 -52.0023 27.1293
LeftShoulder1  2.06645 -4.70017 -18.6525
LeftArm  8.50631 -25.9905 -46.2933
LeftForeArm  80.0149 -79.6944 -67.4029
LeftHand  -0.300884 2.60472 12.2178
RightShoulder  3.67683 5.85755 33.3928
RightArm  -36.8864 -24.0527 4.01442
RightForeArm  17.1401 67.937 27.6565
RightHand  -2.09163 6.1702 -21.0802
LeftUpLeg  -63.8489 73.5733 -28.7925
LeftLeg  29.0313 13.7495 7.11718
LeftFoot  -17.2707 -0.57343 -13.0457
LeftToes  -6.27559e-011 -2.10356e-011 8.24929e-012
194
root  2.00412 40.6226 12.5622 38.5017 -11.0278 -39.3248
RightUpLeg  -74.2816 -11.2495 15.2082
RightLeg  63.3888 3.4363 7.96165
RightFoot  -0.580143 -1.63653 17.1553
RightToes  -1.74623e-010 0 -2.59999e-017
Spine  27.5008 -7.0646 -10.2959
Spine1  14.3341 -17.4811 31.3138
HEad  -9.31105 -51.3334 36.2858
LeftShoulder1  2.16761 -4.67859 -20.0419
LeftArm  5.0832 -15.9289 -41.5208
LeftForeArm  103.872 -80.172 -97.1905
LeftHand  -0.363939 2.9944 17.2576
RightShoulder  4.20446 6.35318 36.718
RightArm  -38.9266 -20.3548 9.72643
RightForeArm  14.8256 65.677 24.5354
RightHand  -2.2712 7.27836 -20.91
LeftUpLeg  -46.4315 55.924 1.98113
LeftLeg  29.6416 38.6738 11.2298
LeftFoot  -9.44578 0.313021 -14.1215
LeftToes  -6.27559e-011 -2.10356e-011 8.24929e-012
195
root  2.64967 41.3057 12.5945 62.3763 -12.9464 -51.9012
RightUpLeg  -85.2935 -23.6038 12.0034
RightLeg  82.9698 1.4543 10.6923
RightFoot  -9.4293 -0.350284 18.6371
RightToes  -1.74623e-010 0 -2.59999e-017
Spine  19.6409 -7.72074 -3.86311
Spine1  15.6074 -16.0375 30.1541
HEad  -6.81591 -47.2046 35.702
LeftShoulder1  2.27704 -4.45268 -22.3129
LeftArm  2.44454 -0.479511 -40.058
LeftForeArm  106.712 -79.9228 -101.917
LeftHand  -0.282147 3.88241 21.4172
RightShoulder  4.42332 6.54 38.0692
RightArm  -38.9632 -19.8455 11.0672
RightForeArm  11.5349 61.6613 20.3796
RightHand  -2.16478 7.33245 -19.8841
LeftUpLeg  -44.6002 39.7323 25.7104
LeftLeg  25.798 45.358 9.95335
LeftFoot  -0.878361 1.05212 -11.5776
LeftToes  -6.27559e-011 -2.10356e-011 8.24929e-012
